<svg width="40.000000" height="32.000000" viewBox="0 0 40 32" fill="none" xmlns="http://www.w3.org/2000/svg" xmlns:xlink="http://www.w3.org/1999/xlink">
	<desc>
			Created with Pixso.
	</desc>
	<defs/>
	<path id="Second Level/PARAGRAPH" d="M37.0624 30.1589C34.7681 32.6138 30.8854 32.6138 28.4146 30.1589C26.1202 27.7041 26.1202 24.022 28.5911 21.7424C29.8264 20.5151 31.2383 20.1643 32.6503 19.8137C35.474 19.2876 39.7097 9.46851 26.1202 0.526123L26.4731 0C33.7091 3.68213 35.2976 7.18896 37.2389 10.3452C41.1217 17.5342 40.7687 26.6521 37.0624 30.1589ZM10.9423 30.1589C8.64795 32.6138 4.76514 32.6138 2.29431 30.1589C0 27.7041 0 24.022 2.47083 21.7424C3.7063 20.5151 5.11816 20.1643 6.53003 19.8137C9.35388 19.2876 13.5896 9.46851 0 0.526123L0.353027 0C7.58899 3.68213 9.17737 7.18896 11.1188 10.3452C15.0015 17.5342 14.6484 26.6521 10.9423 30.1589Z" fill="#9D875C" fill-opacity="1.000000" fill-rule="nonzero"/>
</svg>
