<svg width="71.999084" height="66.995361" viewBox="0 0 71.9991 66.9954" fill="none" xmlns="http://www.w3.org/2000/svg" xmlns:xlink="http://www.w3.org/1999/xlink">
	<desc>
			Created with Pixso.
	</desc>
	<defs/>
	<path id="Vector" d="M11.6946 45.1895C11.0448 44.7202 10.4193 44.2351 9.81793 43.7346M7.13672 41.186C3.26471 37.0002 1 31.9272 1 26.4705C1.03723 -7.48584 70.9459 -7.49463 70.9761 26.4705C71.4111 34.2761 65.8326 40.0022 60.6741 45.679C58.9224 51.1794 49.3478 67.0154 45.7611 65.9487C43.2562 65.2041 45.6964 51.8406 42.3055 52.293C38.8393 52.7566 39.7511 52.4873 35.9854 52.4873C28.2609 52.4873 21.122 50.626 15.3335 47.4707M35.9996 44.2188C28.422 44.2188 22.2792 39.7954 22.2792 34.3386C22.2792 28.8821 28.422 24.4585 35.9996 24.4585C43.5771 24.4585 49.7199 28.8821 49.7199 34.3386C49.7199 39.7954 43.5771 44.2188 35.9996 44.2188ZM23.7306 24.2373C21.2324 25.0854 18.3651 23.3254 17.3263 20.3064C16.2874 17.2874 17.4704 14.1523 19.9686 13.3042C22.4667 12.4561 25.334 14.2161 26.3729 17.2351C27.4117 20.2542 26.2287 23.3892 23.7306 24.2373ZM54.6805 20.3184C53.6417 23.3374 50.7744 25.0972 48.2762 24.249C45.7781 23.4011 44.5951 20.2661 45.6339 17.2468C46.6728 14.2278 49.5401 12.468 52.0383 13.3162C54.5364 14.1641 55.7194 17.2991 54.6805 20.3184ZM35.9995 21.1001C33.3595 21.1001 31.2193 18.5137 31.2193 15.323C31.2193 12.1326 33.3595 9.54614 35.9995 9.54614C38.6395 9.54614 40.7797 12.1326 40.7797 15.323C40.7797 18.5137 38.6395 21.1001 35.9995 21.1001Z" stroke="#000000" stroke-opacity="1.000000" stroke-width="2.000000" stroke-linejoin="round"/>
</svg>
